<svg xmlns="http://www.w3.org/2000/svg" width="61.573" height="46" viewBox="0 0 61.573 46">
  <path id="Path_222" data-name="Path 222" d="M376.088,317.133H327.311a6.405,6.405,0,0,0-6.4,6.4v33.2a6.405,6.405,0,0,0,6.4,6.4h48.777a6.405,6.405,0,0,0,6.4-6.4v-33.2A6.405,6.405,0,0,0,376.088,317.133Zm-48.777,3h48.777a3.393,3.393,0,0,1,2.862,1.581l-24.6,21.551c-.024.022-.048.045-.072.069a3.647,3.647,0,0,1-5.15,0c-.023-.023-.047-.047-.072-.069l-24.6-21.551A3.393,3.393,0,0,1,327.311,320.132Zm48.777,40H327.311a3.4,3.4,0,0,1-3.4-3.4V325.229l23.13,20.261a6.648,6.648,0,0,0,9.315,0l23.13-20.26v31.5A3.4,3.4,0,0,1,376.088,360.134Z" transform="translate(-320.913 -317.133)" fill="#779be7"/>
</svg>
