<svg xmlns="http://www.w3.org/2000/svg" width="1934.813" height="187.937" viewBox="0 0 1934.813 187.937">
  <g id="waves" transform="translate(-0.187 -176.063)">
    <g id="graph_copy" data-name="graph copy" transform="translate(33 178)" opacity="0.718">
      <path id="Rectangle" d="M8.509,1.86c1.35-4.45,40.637-.332,68.126,6.2A260.645,260.645,0,0,1,147.4,36.841c20.783,12.14,41.67,24.418,54.969,38.759,4.1,4.419,10.594,7.1,14.6,11.575,3.143,3.512,9.673,6.762,11.972,9.606,1.518,1.877,5.07,3.069,6.565,3.985.726.445-2.065,1.219,0,1.219,6.67,0,7.24,5.865,11.908,10.29,7.64,7.242,18.916,15.527,31.437,24.273,31.65,22.107,78.563,41.519,106.093,41.115,20.314-.3,52.875-3.39,80.7-13.542,26.176-9.551,47.58-25.727,68.481-40.063,14.964-10.263,26.995-22.685,39.912-32.309,15.409-11.48,31.315-19.846,44.451-27.762,6.567-3.957,17.429-6.521,22.974-9.306,2.4-1.2,3.866-.877,5.959-1.376,1.07-.256,2.162-1.567,3.917-1.673,10.8-.65,21.7-3.241,32.429-3.876,34.261-2.03,68.653,8.617,100.195,25.6,31.292,16.846,59.743,39.941,91.446,59.234,44.413,27.028,93.664,47.208,136.7,45.076,15.942-.79,33.583-2.477,45.167-8.074,5.979-2.888,14.108-5.251,19.394-8.654,1.619-1.043,2.672-2.712,5.066-3.32,10.041-2.549,15.081-10.692,22.776-18.709,16.047-16.719,32.16-38.412,48.736-46.41,6.321-3.05,9-6.229,11.86-7.97,6.664-4.063,8.826-4.918,21.385-11.172,7.273-3.622,44.586-3.947,51.1-6.987,11.686-.112,30.537,1.687,34.546.954,19.441-3.555,33.31,11.7,52.1,8.281,43.181-7.864,104.457-3.557,158.489,12.9,4.865,1.482,9.65,1.94,14.752,3.25a391.9,391.9,0,0,1,44.136,14.336c15.891,6.139,34.05,9.437,46.773,13.856,7.377,2.562,14.212,4.68,19.651,6.243,3.245.932,5.013,2.315,8.811,1.686,2.764-.458,5.844,3.644,8.332,4.717,3.794,1.636,6.955.838,11.348,2.334,12.753,4.342,31.24,7.264,47.567,11.849,4.259,1.2,8.535,2.2,13.159,3.086,17.227,3.317,33.217,5.468,48.523,7.76,27.357,4.1,46.688,7.245,56.225-1.967C1837.946,120.942,1780.574.054,1780.574.054V184.991H22.941S-16.988,85.877,8.509,1.86Z" transform="translate(0.25 0.009)" fill="#fff"/>
      <path id="COMMENTS_GRAPH" d="M0,0C189.709,0,240.3,177.172,381.761,177.172S556.851,47.405,681.216,47.405s177.128,129.767,322.391,129.767c89.625,0,97.37-69.828,165.164-100.444,42.086-19.006,141.483-4.546,194.359-4.546,138.052,0,264.127,90.006,440.884,90.006" transform="translate(10.985 0.063)" fill="none" stroke="#fff" stroke-linecap="round" stroke-linejoin="round" stroke-miterlimit="10" stroke-width="4"/>
    </g>
    <g id="graph_copy_2" data-name="graph copy 2" transform="translate(0 220)" opacity="0.543">
      <path id="Rectangle-2" data-name="Rectangle" d="M6.38,1.428c1.013-3.416,30.472-.255,51.085,4.756a192.914,192.914,0,0,1,53.066,22.095c15.584,9.318,31.247,18.743,41.219,29.75,3.073,3.392,7.944,5.447,10.949,8.885,2.357,2.7,7.253,5.191,8.977,7.373,1.138,1.441,3.8,2.356,4.923,3.059.544.341-1.549.936,0,.936,5,0,5.429,4.5,8.929,7.9,5.729,5.558,14.184,11.918,23.573,18.631,23.733,16.969,58.911,31.869,79.555,31.558,15.233-.229,39.649-2.6,60.513-10.394,19.628-7.331,35.678-19.747,51.351-30.751,11.221-7.878,20.242-17.413,29.928-24.8,11.555-8.812,23.482-15.234,33.332-21.309,4.924-3.037,13.07-5,17.227-7.143,1.838-.945,4.03-.588,5.662-.97.781-.183.484-1.293,1.744-1.371,8.1-.5,16.272-2.487,24.317-2.975,25.691-1.558,51.48,6.614,75.132,19.648,23.464,12.93,44.8,30.657,68.572,45.466,33.3,20.746,70.235,36.235,102.508,34.6,20.015-1.015,41.94-3.373,60.949-8.312,23.231-6.036,43.05-15.413,61.441-24.5,15.8-7.8,32.7-15.276,46.153-22.133,5.454-2.78,11.448-4.808,16.334-7.141,2.446-1.168,5.129-3.186,8.745-3.863,14.578-2.729,26.345-9.768,40.438-12.4,32.38-6.036,78.328-2.731,118.845,9.9,3.648,1.137,7.236,1.489,11.062,2.494a289.082,289.082,0,0,1,33.1,11c11.916,4.712,25.533,7.243,35.073,10.635,5.531,1.967,10.657,3.592,14.735,4.792,2.433.716,3.759,1.777,6.607,1.294,2.073-.351,4.382,2.8,6.248,3.621,2.845,1.255,5.215.643,8.509,1.791,9.563,3.332,23.425,5.576,35.669,9.095,3.193.918,6.4,1.685,9.868,2.368,12.918,2.546,24.908,4.2,36.385,5.956,20.514,3.145,35.01,5.561,42.161-1.509C1378.206,92.831,1335.185.042,1335.185.042V141.993H17.2S-12.738,65.917,6.38,1.428Z" transform="translate(0.187 0.007)" fill="#fff"/>
      <path id="COMMENTS_GRAPH-2" data-name="COMMENTS_GRAPH" d="M0,0C142.256,0,180.194,135.991,286.268,135.991s131.294-99.6,224.55-99.6,132.821,99.6,241.749,99.6S918.64,55.4,1022.161,55.4s198.059,69.086,330.6,69.086" transform="translate(8.237 0.049)" fill="none" stroke="#fff" stroke-linecap="round" stroke-linejoin="round" stroke-miterlimit="10" stroke-width="4"/>
    </g>
    <g id="graph" transform="translate(25 256)">
      <path id="Rectangle-3" data-name="Rectangle" d="M8.945,1.083c1.42-2.59,42.719-.194,71.617,3.607a422.267,422.267,0,0,1,74.393,16.755C176.8,28.511,198.76,35.658,212.74,44.005c4.308,2.572,11.137,4.131,15.35,6.738,3.3,2.044,10.168,3.936,12.586,5.592,1.6,1.092,5.33,1.786,6.9,2.32.763.259-2.171.71,0,.71,7.012,0,7.611,3.414,12.518,5.989,8.032,4.215,19.885,9.038,33.048,14.129,33.272,12.868,82.588,24.168,111.529,23.932,21.355-.174,55.585-1.973,84.834-7.882,27.517-5.559,50.018-14.975,71.99-23.32,15.73-5.974,28.378-13.2,41.957-18.807,16.2-6.682,32.92-11.552,46.729-16.16,6.9-2.3,18.322-3.8,24.151-5.417,3.809-1.06,4.928-1.593,10.383-1.775,11.354-.378,22.811-1.886,34.09-2.256,36.016-1.182,72.17,5.016,105.329,14.9,32.9,9.806,62.8,23.249,96.131,34.479,46.688,15.733,98.463,27.479,143.707,26.238,28.059-.769,58.8-2.558,85.445-6.3,32.568-4.578,60.352-11.689,86.135-18.576,22.155-5.919,45.843-11.584,64.7-16.784,7.646-2.108,16.049-3.646,22.9-5.416,3.428-.886,7.19-2.416,12.26-2.929,20.437-2.069,36.933-7.408,56.69-9.4,45.394-4.578,109.809-2.071,166.61,7.509,5.114.862,10.144,1.129,15.508,1.891,16.717,2.377,31.972,5.259,46.4,8.345,16.706,3.573,35.795,5.493,49.17,8.065,7.755,1.491,14.94,2.724,20.658,3.634,3.411.543,5.27,1.347,9.262.981,2.906-.266,6.143,2.121,8.759,2.746,3.989.952,7.311.488,11.929,1.358,13.407,2.527,32.84,4.228,50,6.9,4.477.7,8.972,1.278,13.834,1.8,18.11,1.931,34.919,3.183,51.009,4.517,28.759,2.385,49.081,4.217,59.106-1.145C1932.122,70.4,1871.81.031,1871.81.031V107.68H24.117S-17.858,49.988,8.945,1.083Z" transform="translate(0.263 0.32)" fill="#fff"/>
      <path id="COMMENTS_GRAPH-3" data-name="COMMENTS_GRAPH" d="M0,0C199.43,0,252.616,103.129,401.322,103.129s184.062-75.535,314.8-75.535,186.2,75.535,338.91,75.535,232.82-61.113,377.946-61.113,277.661,52.391,463.474,52.391" transform="translate(11.548 0.352)" fill="none" stroke="#fff" stroke-linecap="round" stroke-linejoin="round" stroke-miterlimit="10" stroke-width="4"/>
    </g>
  </g>
</svg>
